<?xml version="1.0" encoding="UTF-8" standalone="no"?>
<svg
   xmlns:dc="http://purl.org/dc/elements/1.1/"
   xmlns:cc="http://creativecommons.org/ns#"
   xmlns:rdf="http://www.w3.org/1999/02/22-rdf-syntax-ns#"
   xmlns:svg="http://www.w3.org/2000/svg"
   xmlns="http://www.w3.org/2000/svg"
   xmlns:xlink="http://www.w3.org/1999/xlink"
   viewBox="0 0 64 64"
   version="1.1"
   id="svg12664"
   height="64"
   width="64">
  <defs
     id="defs12666">
    <linearGradient
       id="linearGradient17818">
      <stop
         id="stop17820"
         offset="0"
         style="stop-color:#ffffff;stop-opacity:1;" />
      <stop
         id="stop17822"
         offset="1"
         style="stop-color:#ffffff;stop-opacity:0;" />
    </linearGradient>
    <linearGradient
       id="linearGradient17537">
      <stop
         id="stop17539"
         offset="0"
         style="stop-color:#ffffff;stop-opacity:0.6" />
      <stop
         id="stop17541"
         offset="1"
         style="stop-color:#ffffff;stop-opacity:0;" />
    </linearGradient>
    <linearGradient
       gradientTransform="translate(-134.625,-43.05)"
       y2="107.2834"
       x2="68.9291"
       y1="15.0229"
       x1="35.979"
       gradientUnits="userSpaceOnUse"
       id="XMLID_18_">
      <stop
         id="stop32"
         style="stop-color:#FFFFFF"
         offset="0" />
      <stop
         id="stop34"
         style="stop-color:#F4F4F4"
         offset="0.2191" />
      <stop
         id="stop36"
         style="stop-color:#D8D8D8"
         offset="0.6013" />
      <stop
         id="stop38"
         style="stop-color:#B3B3B3"
         offset="1" />
    </linearGradient>
    <radialGradient
       gradientTransform="translate(-194.625,-43.05)"
       gradientUnits="userSpaceOnUse"
       r="82.374199"
       cy="130.1982"
       cx="126.5"
       id="XMLID_22_">
      <stop
         id="stop72"
         style="stop-color:#f3a848;stop-opacity:1"
         offset="0" />
      <stop
         id="stop76"
         style="stop-color:#FC8723"
         offset="0.7541" />
      <stop
         id="stop78"
         style="stop-color:#f4802a;stop-opacity:1"
         offset="1" />
    </radialGradient>
    <radialGradient
       gradientUnits="userSpaceOnUse"
       gradientTransform="matrix(1.1933035e-7,-1.8499999,1.8000001,1.1610524e-7,-53.292869,95.19999)"
       r="20"
       fy="50.162701"
       fx="32"
       cy="50.162701"
       cx="32"
       id="radialGradient17499"
       xlink:href="#XMLID_22_" />
    <radialGradient
       gradientUnits="userSpaceOnUse"
       gradientTransform="matrix(2.5263158,-2.0415251e-7,1.8713982e-7,2.3157897,-44.842119,-126.33128)"
       r="19"
       fy="58.870323"
       fx="29.625"
       cy="58.870323"
       cx="29.625"
       id="radialGradient17543"
       xlink:href="#linearGradient17537" />
    <linearGradient
       gradientTransform="translate(4,2)"
       gradientUnits="userSpaceOnUse"
       y2="46"
       x2="40"
       y1="2"
       x1="16"
       id="linearGradient17800"
       xlink:href="#XMLID_18_" />
    <linearGradient
       gradientTransform="translate(3,-2)"
       gradientUnits="userSpaceOnUse"
       y2="13"
       x2="13"
       y1="8"
       x1="13"
       id="linearGradient18112"
       xlink:href="#linearGradient17818" />
    <linearGradient
       gradientTransform="matrix(0.10585141,0,0,0.03294117,-5.3317992,18.922186)"
       gradientUnits="userSpaceOnUse"
       xlink:href="#linearGradient5048-585-73-1-5"
       id="linearGradient12467"
       y2="609.50507"
       x2="302.85715"
       y1="366.64789"
       x1="302.85715" />
    <linearGradient
       id="linearGradient5048-585-73-1-5">
      <stop
         offset="0"
         style="stop-color:#000000;stop-opacity:0"
         id="stop2667-99-4-6" />
      <stop
         offset="0.5"
         style="stop-color:#000000;stop-opacity:1"
         id="stop2669-5-9-4" />
      <stop
         offset="1"
         style="stop-color:#000000;stop-opacity:0"
         id="stop2671-56-4-2" />
    </linearGradient>
    <radialGradient
       gradientTransform="matrix(0.04105444,0,0,0.03294117,31.406253,18.922186)"
       gradientUnits="userSpaceOnUse"
       xlink:href="#linearGradient5060-179-37-4-0"
       id="radialGradient12471"
       fy="486.64789"
       fx="605.71429"
       r="117.14286"
       cy="486.64789"
       cx="605.71429" />
    <linearGradient
       id="linearGradient5060-179-37-4-0">
      <stop
         offset="0"
         style="stop-color:#000000;stop-opacity:1"
         id="stop2675-91-9-2" />
      <stop
         offset="1"
         style="stop-color:#000000;stop-opacity:0"
         id="stop2677-09-0-9" />
    </linearGradient>
    <radialGradient
       gradientTransform="matrix(-0.04105444,0,0,0.03294117,31.111999,18.922186)"
       gradientUnits="userSpaceOnUse"
       xlink:href="#linearGradient5060-179-37-4-0"
       id="radialGradient12475"
       fy="486.64789"
       fx="605.71429"
       r="117.14286"
       cy="486.64789"
       cx="605.71429" />
    <linearGradient
       y2="609.50507"
       x2="302.85715"
       y1="366.64789"
       x1="302.85715"
       gradientTransform="matrix(0.0705676,0,0,0.02196079,-0.72736841,24.281457)"
       gradientUnits="userSpaceOnUse"
       id="linearGradient18305"
       xlink:href="#linearGradient5048-585-73-1-5" />
    <radialGradient
       r="117.14286"
       fy="486.64789"
       fx="605.71429"
       cy="486.64789"
       cx="605.71429"
       gradientTransform="matrix(0.02736963,0,0,0.02196079,38.653406,24.281457)"
       gradientUnits="userSpaceOnUse"
       id="radialGradient18307"
       xlink:href="#linearGradient5060-179-37-4-0" />
    <radialGradient
       r="117.14286"
       fy="486.64789"
       fx="605.71429"
       cy="486.64789"
       cx="605.71429"
       gradientTransform="matrix(-0.02736963,0,0,0.02196079,23.235077,24.281457)"
       gradientUnits="userSpaceOnUse"
       id="radialGradient18309"
       xlink:href="#linearGradient5060-179-37-4-0" />
    <clipPath
       id="clipPath8180"
       clipPathUnits="userSpaceOnUse">
      <path
         style="opacity:0.5;fill:#000000;fill-opacity:1;fill-rule:evenodd;stroke:none;stroke-width:2;stroke-linecap:butt;stroke-linejoin:round;stroke-miterlimit:4;stroke-dasharray:none;stroke-opacity:1"
         d="m 5,34 c 2,0 2,-2 2,-2 L 7,9 C 7,9 7,6 10,6 l 17,0 c 3,0 3,-3 6,-3 l 21,0 c 3,0 3,3 3,3 l 0,26 c 0,0 0,2 -2,2 z"
         id="path8182"
         clip-path="none" />
    </clipPath>
    <clipPath
       id="clipPath8195"
       clipPathUnits="userSpaceOnUse">
      <path
         id="path8197"
         d="m 49,34 c 2,0 2,-2 2,-2 l 0,-33 c 0,0 0,-3 -3,-3 l -18,0 c -3,0 -3,-3 -6,-3 L 7,-7 c -3,0 -3,3 -3,3 l 0,36 c 0,0 0,2 2,2 z"
         style="fill:url(#linearGradient8199);fill-opacity:1;fill-rule:evenodd;stroke:none;stroke-width:1px;stroke-linecap:butt;stroke-linejoin:miter;stroke-opacity:1" />
    </clipPath>
    <linearGradient
       y2="46"
       x2="40"
       y1="2"
       x1="16"
       gradientTransform="translate(2,0)"
       gradientUnits="userSpaceOnUse"
       id="linearGradient8199"
       xlink:href="#XMLID_18_" />
    <linearGradient
       gradientUnits="userSpaceOnUse"
       y2="1"
       x2="24"
       y1="-3"
       x1="24"
       id="linearGradient8207"
       xlink:href="#linearGradient17537" />
  </defs>
  <metadata
     id="metadata12669">
    <rdf:RDF>
      <cc:Work
         rdf:about="">
        <dc:format>image/svg+xml</dc:format>
        <dc:type
           rdf:resource="http://purl.org/dc/dcmitype/StillImage" />
        <dc:title />
      </cc:Work>
    </rdf:RDF>
  </metadata>
  <g
     transform="translate(0,16)"
     id="layer1">
    <g
       transform="translate(2,1)"
       id="g8172">
      <path
         style="display:inline;overflow:visible;visibility:visible;opacity:0.1;fill:url(#linearGradient12467);fill-opacity:1;fill-rule:nonzero;stroke:none;stroke-width:1;marker:none"
         d="m 6.3703746,30.999999 49.7777754,0 0,7.999999 -49.7777754,0 z"
         id="rect4173-8-8" />
      <path
         style="display:inline;overflow:visible;visibility:visible;opacity:0.1;fill:url(#radialGradient12471);fill-opacity:1;fill-rule:nonzero;stroke:none;stroke-width:1;marker:none"
         id="path5058-9-0"
         d="m 56.148146,31.000279 c 0,0 0,7.999559 0,7.999559 2.1142,0.01507 5.111106,-1.792293 5.111106,-4.000293 0,-2.208 -2.359293,-3.999266 -5.111106,-3.999266 z" />
      <path
         style="display:inline;overflow:visible;visibility:visible;opacity:0.1;fill:url(#radialGradient12475);fill-opacity:1;fill-rule:nonzero;stroke:none;stroke-width:1;marker:none"
         id="path5018-6-6"
         d="m 6.3701065,31.000279 c 0,0 0,7.999559 0,7.999559 C 4.2559066,39.014908 1.259,37.207545 1.259,34.999545 c 0,-2.208 2.3592933,-3.999266 5.1111065,-3.999266 z" />
    </g>
    <g
       transform="matrix(1,0,0,1.1250001,2,-3.3750019)"
       id="g8177">
      <path
         style="display:inline;overflow:visible;visibility:visible;opacity:0.3;fill:url(#linearGradient18305);fill-opacity:1;fill-rule:nonzero;stroke:none;stroke-width:1;marker:none"
         d="m 6.7407466,32.333332 48.4072534,0 0,5.333333 -48.4072534,0 z"
         id="rect18299" />
      <path
         d="m 55.148,32.333519 0,5.333039 c 1.409467,0.01 3.407404,-1.194862 3.407404,-2.666862 0,-1.472 -1.572862,-2.666177 -3.407404,-2.666177 z"
         id="path18301"
         style="display:inline;overflow:visible;visibility:visible;opacity:0.3;fill:url(#radialGradient18307);fill-opacity:1;fill-rule:nonzero;stroke:none;stroke-width:1;marker:none" />
      <path
         d="m 6.7404833,32.333519 0,5.333039 c -1.4094664,0.01004 -3.407404,-1.194862 -3.407404,-2.666862 0,-1.472 1.5728621,-2.666177 3.407404,-2.666177 z"
         id="path18303"
         style="display:inline;overflow:visible;visibility:visible;opacity:0.3;fill:url(#radialGradient18309);fill-opacity:1;fill-rule:nonzero;stroke:none;stroke-width:1;marker:none" />
    </g>
    <path
       id="path17802"
       d="m 52,36 c 2,0 2,-2 2,-2 L 54,1 c 0,0 0,-3 -3,-3 l -19,0 c -3,0 -3,-3 -6,-3 L 9,-5 c -3,0 -3,3 -3,3 l 0,36 c 0,0 0,2 2,2 z"
       style="opacity:0.4;fill:none;fill-opacity:1;fill-rule:evenodd;stroke:#000000;stroke-width:2;stroke-linecap:butt;stroke-linejoin:miter;stroke-miterlimit:4;stroke-dasharray:none;stroke-opacity:1" />
    <path
       style="fill:url(#linearGradient17800);fill-opacity:1;fill-rule:evenodd;stroke:none;stroke-width:1px;stroke-linecap:butt;stroke-linejoin:miter;stroke-opacity:1"
       d="m 52,36 c 2,0 2,-2 2,-2 L 54,1 c 0,0 0,-3 -3,-3 l -19,0 c -3,0 -3,-3 -6,-3 L 9,-5 c -3,0 -3,3 -3,3 l 0,36 c 0,0 0,2 2,2 z"
       id="path17796" />
    <path
       id="rect17563"
       d="m 9,5 0,1 1,0 0,-1 -1,0 z m 3,0 0,1 1,0 0,-1 -1,0 z m 3,0 0,1 1,0 0,-1 -1,0 z m 3,0 0,1 1,0 0,-1 -1,0 z m 3,0 0,1 1,0 0,-1 -1,0 z m 3,0 0,1 1,0 0,-1 -1,0 z m 3,0 0,1 1,0 0,-1 -1,0 z m 3,0 0,1 1,0 0,-1 -1,0 z m 3,0 0,1 1,0 0,-1 -1,0 z m 3,0 0,1 1,0 0,-1 -1,0 z m 3,0 0,1 1,0 0,-1 -1,0 z m 3,0 0,1 1,0 0,-1 -1,0 z m 3,0 0,1 1,0 0,-1 -1,0 z m 3,0 0,1 1,0 0,-1 -1,0 z m 3,0 0,1 1,0 0,-1 -1,0 z M 9,8 9,9 10,9 10,8 9,8 Z m 3,0 0,1 1,0 0,-1 -1,0 z m 3,0 0,1 1,0 0,-1 -1,0 z m 3,0 0,1 1,0 0,-1 -1,0 z m 3,0 0,1 1,0 0,-1 -1,0 z m 3,0 0,1 1,0 0,-1 -1,0 z m 3,0 0,1 1,0 0,-1 -1,0 z m 3,0 0,1 1,0 0,-1 -1,0 z m 3,0 0,1 1,0 0,-1 -1,0 z m 3,0 0,1 1,0 0,-1 -1,0 z m 3,0 0,1 1,0 0,-1 -1,0 z m 3,0 0,1 1,0 0,-1 -1,0 z m 3,0 0,1 1,0 0,-1 -1,0 z m 3,0 0,1 1,0 0,-1 -1,0 z m 3,0 0,1 1,0 0,-1 -1,0 z m -42,3 0,1 1,0 0,-1 -1,0 z m 3,0 0,1 1,0 0,-1 -1,0 z m 3,0 0,1 1,0 0,-1 -1,0 z m 3,0 0,1 1,0 0,-1 -1,0 z m 3,0 0,1 1,0 0,-1 -1,0 z m 3,0 0,1 1,0 0,-1 -1,0 z m 3,0 0,1 1,0 0,-1 -1,0 z m 3,0 0,1 1,0 0,-1 -1,0 z m 3,0 0,1 1,0 0,-1 -1,0 z m 3,0 0,1 1,0 0,-1 -1,0 z m 3,0 0,1 1,0 0,-1 -1,0 z m 3,0 0,1 1,0 0,-1 -1,0 z m 3,0 0,1 1,0 0,-1 -1,0 z m 3,0 0,1 1,0 0,-1 -1,0 z m 3,0 0,1 1,0 0,-1 -1,0 z m -42,3 0,1 1,0 0,-1 -1,0 z m 3,0 0,1 1,0 0,-1 -1,0 z m 3,0 0,1 1,0 0,-1 -1,0 z m 3,0 0,1 1,0 0,-1 -1,0 z m 3,0 0,1 1,0 0,-1 -1,0 z m 3,0 0,1 1,0 0,-1 -1,0 z m 3,0 0,1 1,0 0,-1 -1,0 z m 3,0 0,1 1,0 0,-1 -1,0 z m 3,0 0,1 1,0 0,-1 -1,0 z m 3,0 0,1 1,0 0,-1 -1,0 z m 3,0 0,1 1,0 0,-1 -1,0 z m 3,0 0,1 1,0 0,-1 -1,0 z m 3,0 0,1 1,0 0,-1 -1,0 z m 3,0 0,1 1,0 0,-1 -1,0 z m 3,0 0,1 1,0 0,-1 -1,0 z m -42,3 0,1 1,0 0,-1 -1,0 z m 3,0 0,1 1,0 0,-1 -1,0 z m 3,0 0,1 1,0 0,-1 -1,0 z m 3,0 0,1 1,0 0,-1 -1,0 z m 3,0 0,1 1,0 0,-1 -1,0 z m 3,0 0,1 1,0 0,-1 -1,0 z m 3,0 0,1 1,0 0,-1 -1,0 z m 3,0 0,1 1,0 0,-1 -1,0 z m 3,0 0,1 1,0 0,-1 -1,0 z m 3,0 0,1 1,0 0,-1 -1,0 z m 3,0 0,1 1,0 0,-1 -1,0 z m 3,0 0,1 1,0 0,-1 -1,0 z m 3,0 0,1 1,0 0,-1 -1,0 z m 3,0 0,1 1,0 0,-1 -1,0 z m 3,0 0,1 1,0 0,-1 -1,0 z m -42,3 0,1 1,0 0,-1 -1,0 z m 3,0 0,1 1,0 0,-1 -1,0 z m 3,0 0,1 1,0 0,-1 -1,0 z m 3,0 0,1 1,0 0,-1 -1,0 z m 3,0 0,1 1,0 0,-1 -1,0 z m 3,0 0,1 1,0 0,-1 -1,0 z m 3,0 0,1 1,0 0,-1 -1,0 z m 3,0 0,1 1,0 0,-1 -1,0 z m 3,0 0,1 1,0 0,-1 -1,0 z m 3,0 0,1 1,0 0,-1 -1,0 z m 3,0 0,1 1,0 0,-1 -1,0 z m 3,0 0,1 1,0 0,-1 -1,0 z m 3,0 0,1 1,0 0,-1 -1,0 z m 3,0 0,1 1,0 0,-1 -1,0 z m 3,0 0,1 1,0 0,-1 -1,0 z m -42,3 0,1 1,0 0,-1 -1,0 z m 3,0 0,1 1,0 0,-1 -1,0 z m 3,0 0,1 1,0 0,-1 -1,0 z m 3,0 0,1 1,0 0,-1 -1,0 z m 3,0 0,1 1,0 0,-1 -1,0 z m 3,0 0,1 1,0 0,-1 -1,0 z m 3,0 0,1 1,0 0,-1 -1,0 z m 3,0 0,1 1,0 0,-1 -1,0 z m 3,0 0,1 1,0 0,-1 -1,0 z m 3,0 0,1 1,0 0,-1 -1,0 z m 3,0 0,1 1,0 0,-1 -1,0 z m 3,0 0,1 1,0 0,-1 -1,0 z m 3,0 0,1 1,0 0,-1 -1,0 z m 3,0 0,1 1,0 0,-1 -1,0 z m 3,0 0,1 1,0 0,-1 -1,0 z m -42,3 0,1 1,0 0,-1 -1,0 z m 3,0 0,1 1,0 0,-1 -1,0 z m 3,0 0,1 1,0 0,-1 -1,0 z m 3,0 0,1 1,0 0,-1 -1,0 z m 3,0 0,1 1,0 0,-1 -1,0 z m 3,0 0,1 1,0 0,-1 -1,0 z m 3,0 0,1 1,0 0,-1 -1,0 z m 3,0 0,1 1,0 0,-1 -1,0 z m 3,0 0,1 1,0 0,-1 -1,0 z m 3,0 0,1 1,0 0,-1 -1,0 z m 3,0 0,1 1,0 0,-1 -1,0 z m 3,0 0,1 1,0 0,-1 -1,0 z m 3,0 0,1 1,0 0,-1 -1,0 z m 3,0 0,1 1,0 0,-1 -1,0 z m 3,0 0,1 1,0 0,-1 -1,0 z m -42,3 0,1 1,0 0,-1 -1,0 z m 3,0 0,1 1,0 0,-1 -1,0 z m 3,0 0,1 1,0 0,-1 -1,0 z m 3,0 0,1 1,0 0,-1 -1,0 z m 3,0 0,1 1,0 0,-1 -1,0 z m 3,0 0,1 1,0 0,-1 -1,0 z m 3,0 0,1 1,0 0,-1 -1,0 z m 3,0 0,1 1,0 0,-1 -1,0 z m 3,0 0,1 1,0 0,-1 -1,0 z m 3,0 0,1 1,0 0,-1 -1,0 z m 3,0 0,1 1,0 0,-1 -1,0 z m 3,0 0,1 1,0 0,-1 -1,0 z m 3,0 0,1 1,0 0,-1 -1,0 z m 3,0 0,1 1,0 0,-1 -1,0 z m 3,0 0,1 1,0 0,-1 -1,0 z"
       style="color:#000000;clip-rule:nonzero;display:inline;overflow:visible;visibility:visible;opacity:0.2;isolation:auto;mix-blend-mode:normal;color-interpolation:sRGB;color-interpolation-filters:linearRGB;solid-color:#000000;solid-opacity:1;fill:#000000;fill-opacity:1;fill-rule:evenodd;stroke:none;stroke-width:2;stroke-linecap:round;stroke-linejoin:round;stroke-miterlimit:4;stroke-dasharray:none;stroke-dashoffset:0;stroke-opacity:1;color-rendering:auto;image-rendering:auto;shape-rendering:auto;text-rendering:auto;enable-background:accumulate" />
    <path
       id="rect17804"
       d="m 9.96875,-4 14.0625,0 C 24.567937,-4 25,-3.5679375 25,-3.03125 l 0,0.0625 C 25,-2.4320625 24.567937,-2 24.03125,-2 L 9.96875,-2 C 9.4320625,-2 9,-2.4320625 9,-2.96875 l 0,-0.0625 C 9,-3.5679375 9.4320625,-4 9.96875,-4 Z"
       style="color:#000000;clip-rule:nonzero;display:inline;overflow:visible;visibility:visible;opacity:1;isolation:auto;mix-blend-mode:normal;color-interpolation:sRGB;color-interpolation-filters:linearRGB;solid-color:#000000;solid-opacity:1;fill:#f79b58;fill-opacity:1;fill-rule:evenodd;stroke:none;stroke-width:2;stroke-linecap:round;stroke-linejoin:round;stroke-miterlimit:4;stroke-dasharray:none;stroke-dashoffset:0;stroke-opacity:1;color-rendering:auto;image-rendering:auto;shape-rendering:auto;text-rendering:auto;enable-background:accumulate" />
    <path
       id="path17464"
       d="M 34,4.5 C 32.333333,4.5 31.396484,5.396484 30.646484,6.146484 29.896484,6.896484 29.333333,7.5 28,7.5 l -17,0 C 9.3333333,7.5 8.3623629,8.408087 7.9277344,9.277344 7.4931059,10.146601 7.5,11 7.5,11 l 0,23 c 0,0 -0.00689,0.396601 -0.1972656,0.777344 C 7.1123629,35.158087 6.8333333,35.5 6,35.5 l 0,0.5 0,0.5 50,0 c 1.166667,0 1.887637,-0.658087 2.197266,-1.277344 C 58.506894,34.603399 58.5,34 58.5,34 l 0,-26 C 58.5,8 58.5069,7.146601 58.072266,6.277344 57.637637,5.408087 56.666667,4.5 55,4.5 Z"
       style="opacity:0.9;fill:url(#radialGradient17499);fill-opacity:1;fill-rule:evenodd;stroke:none;stroke-width:1px;stroke-linecap:butt;stroke-linejoin:miter;stroke-opacity:1" />
    <path
       id="path17530"
       d="M 34,5 C 31,5 31,8 28,8 L 11,8 C 8,8 8,11 8,11 L 8,24.78125 C 21,19 46.535821,17.085096 58,18.476562 L 58,8 c 0,0 0,-3 -3,-3 z"
       style="opacity:0.8;fill:url(#radialGradient17543);fill-opacity:1;fill-rule:evenodd;stroke:none;stroke-width:1px;stroke-linecap:butt;stroke-linejoin:miter;stroke-opacity:1" />
    <path
       id="path17858"
       d="m 54.5,3 0,30.5 c 0.125,3.25 -3.5,3 -3.5,3"
       style="opacity:0.05;fill:none;fill-rule:evenodd;stroke:#000000;stroke-width:1px;stroke-linecap:butt;stroke-linejoin:miter;stroke-opacity:1" />
    <path
       style="opacity:0.3;fill:none;fill-opacity:1;fill-rule:evenodd;stroke:#000000;stroke-width:1px;stroke-linecap:butt;stroke-linejoin:round;stroke-opacity:1"
       d="M 34,4.5 C 32.333333,4.5 31.396484,5.396484 30.646484,6.146484 29.896484,6.896484 29.333333,7.5 28,7.5 l -17,0 C 9.3333333,7.5 8.3623629,8.408087 7.9277344,9.277344 7.4931059,10.146601 7.5,11 7.5,11 l 0,23 c 0,0 -0.00689,0.396601 -0.1972656,0.777344 C 7.1123629,35.158087 6.8333333,35.5 6,35.5 l 0,0.5 0,0.5 50,0 c 1.166667,0 1.887637,-0.658087 2.197266,-1.277344 C 58.506894,34.603399 58.5,34 58.5,34 l 0,-26 C 58.5,8 58.5069,7.146601 58.072266,6.277344 57.637637,5.408087 56.666667,4.5 55,4.5 Z"
       id="path18218" />
    <path
       transform="translate(1,2)"
       clip-path="url(#clipPath8180)"
       id="path17808"
       d="m 5,34 c 2,0 2,-2 2,-2 L 7,9 C 7,9 7,6 10,6 l 17,0 c 3,0 3,-3 6,-3 l 21,0 c 3,0 3,3 3,3 L 57,18.831845 57,32 c 0,0 0,2 -2,2 z"
       style="opacity:0.5;fill:none;fill-opacity:1;fill-rule:evenodd;stroke:url(#linearGradient18112);stroke-width:2;stroke-linecap:butt;stroke-linejoin:round;stroke-miterlimit:4;stroke-dasharray:none;stroke-opacity:1" />
    <path
       id="path17826"
       d="m 7.9999998,34.666665 46.9999982,0"
       style="opacity:0.1;fill:none;fill-rule:evenodd;stroke:#ffffff;stroke-width:1px;stroke-linecap:butt;stroke-linejoin:miter;stroke-opacity:1" />
    <path
       transform="translate(2,2)"
       clip-path="url(#clipPath8195)"
       style="opacity:0.4;fill:none;fill-opacity:1;fill-rule:evenodd;stroke:url(#linearGradient8207);stroke-width:2;stroke-linecap:butt;stroke-linejoin:miter;stroke-miterlimit:4;stroke-dasharray:none;stroke-opacity:1"
       d="m 50,34 c 2,0 2,-2 2,-2 l 0,-33 c 0,0 0,-3 -3,-3 l -19,0 c -3,0 -3,-3 -6,-3 L 7,-7 c -3,0 -3,3 -3,3 l 0,36 c 0,0 0,2 2,2 z"
       id="path8191" />
  </g>
</svg>
