<?xml version="1.0" encoding="UTF-8" standalone="no"?>
<svg
   xmlns:dc="http://purl.org/dc/elements/1.1/"
   xmlns:cc="http://creativecommons.org/ns#"
   xmlns:rdf="http://www.w3.org/1999/02/22-rdf-syntax-ns#"
   xmlns:svg="http://www.w3.org/2000/svg"
   xmlns="http://www.w3.org/2000/svg"
   xmlns:xlink="http://www.w3.org/1999/xlink"
   viewBox="0 0 16 16"
   version="1.1"
   id="svg12664"
   height="16"
   width="16">
  <defs
     id="defs12666">
    <linearGradient
       id="linearGradient17537">
      <stop
         id="stop17539"
         offset="0"
         style="stop-color:#ffffff;stop-opacity:0.6" />
      <stop
         id="stop17541"
         offset="1"
         style="stop-color:#ffffff;stop-opacity:0;" />
    </linearGradient>
    <linearGradient
       gradientTransform="translate(-134.625,-43.05)"
       y2="107.2834"
       x2="68.9291"
       y1="15.0229"
       x1="35.979"
       gradientUnits="userSpaceOnUse"
       id="XMLID_18_">
      <stop
         id="stop32"
         style="stop-color:#FFFFFF"
         offset="0" />
      <stop
         id="stop34"
         style="stop-color:#F4F4F4"
         offset="0.2191" />
      <stop
         id="stop36"
         style="stop-color:#D8D8D8"
         offset="0.6013" />
      <stop
         id="stop38"
         style="stop-color:#B3B3B3"
         offset="1" />
    </linearGradient>
    <radialGradient
       gradientTransform="translate(-194.625,-43.05)"
       gradientUnits="userSpaceOnUse"
       r="82.374199"
       cy="130.1982"
       cx="126.5"
       id="XMLID_22_">
      <stop
         id="stop72"
         style="stop-color:#f3a848;stop-opacity:1"
         offset="0" />
      <stop
         id="stop76"
         style="stop-color:#FC8723"
         offset="0.7541" />
      <stop
         id="stop78"
         style="stop-color:#f4802a;stop-opacity:1"
         offset="1" />
    </radialGradient>
    <radialGradient
       gradientUnits="userSpaceOnUse"
       gradientTransform="matrix(-1.4380973e-8,-0.52419402,0.50123153,-1.310133e-8,-13.032067,61.786236)"
       r="20"
       fy="49.448414"
       fx="32"
       cy="49.448414"
       cx="32"
       id="radialGradient17499"
       xlink:href="#XMLID_22_" />
    <radialGradient
       gradientUnits="userSpaceOnUse"
       gradientTransform="matrix(0.90447795,-7.1343679e-8,6.700027e-8,0.80928203,-17.190263,-11.716694)"
       r="19"
       fy="62.324867"
       fx="27.645834"
       cy="62.324867"
       cx="27.645834"
       id="radialGradient17543"
       xlink:href="#linearGradient17537" />
    <linearGradient
       gradientTransform="matrix(0.35802252,0,0,0.34946266,0.2963158,32.130297)"
       gradientUnits="userSpaceOnUse"
       y2="39.688656"
       x2="35.482918"
       y1="8.2117586"
       x1="15.931077"
       id="linearGradient17800"
       xlink:href="#XMLID_18_" />
    <linearGradient
       id="linearGradient4011">
      <stop
         offset="0"
         style="stop-color:#ffffff;stop-opacity:1"
         id="stop4013" />
      <stop
         offset="0.507761"
         style="stop-color:#ffffff;stop-opacity:0.23529412"
         id="stop4015" />
      <stop
         offset="0.83456558"
         style="stop-color:#ffffff;stop-opacity:0.15686275"
         id="stop4017" />
      <stop
         offset="1"
         style="stop-color:#ffffff;stop-opacity:0.39215687"
         id="stop4019" />
    </linearGradient>
    <linearGradient
       gradientTransform="translate(0,33)"
       gradientUnits="userSpaceOnUse"
       y2="13"
       x2="12"
       y1="7"
       x1="12"
       id="linearGradient8268"
       xlink:href="#linearGradient4011" />
    <linearGradient
       y2="13"
       x2="12"
       y1="7"
       x1="12"
       gradientTransform="translate(0,33)"
       gradientUnits="userSpaceOnUse"
       id="linearGradient8303"
       xlink:href="#linearGradient4011" />
    <clipPath
       id="clipPath8307"
       clipPathUnits="userSpaceOnUse">
      <path
         id="path8309"
         d="m 9,37.999949 c -0.2348843,0 -0.4387334,0.07426 -0.5625,0.158203 -0.1450871,0.0984 -0.2311402,0.207706 -0.3535156,0.345703 -0.088229,0.09949 -0.1701776,0.233288 -0.3769532,0.353516 C 7.5002558,38.977598 7.2701024,39.001549 7,38.999949 l -4,0 c -0.462623,0 -0.77658,0.303199 -0.875,0.5 C 1.999666,39.750616 2,39.990183 2,39.990183 l 0,0.0059 0,8.003897 3.37e-4,1 0.0078,0 C 5.998859,48.994194 14,48.999979 14,48.999979 c 0.462624,0 0.776539,-0.303197 0.875,-0.5 C 15.000334,48.24931 15,48.009745 15,48.009745 l 0,-0.0059 0,-9.003896 c 0,-0.462624 -0.303158,-0.776581 -0.5,-0.875 -0.250669,-0.125335 -0.490234,-0.125 -0.490234,-0.125 l -0.0059,0 z"
         style="opacity:0.9;fill:#000000;fill-opacity:1;fill-rule:evenodd;stroke:none;stroke-width:1px;stroke-linecap:butt;stroke-linejoin:miter;stroke-opacity:1" />
    </clipPath>
    <clipPath
       id="clipPath8312"
       clipPathUnits="userSpaceOnUse">
      <path
         id="path8314"
         d="m 10.000002,37.999949 c -0.2348844,0 -0.4387335,0.07426 -0.5625001,0.158203 -0.1450871,0.0984 -0.2311402,0.207706 -0.3535156,0.345703 -0.088229,0.09949 -0.1701776,0.233288 -0.3769532,0.353516 -0.2067754,0.120227 -0.4369288,0.144178 -0.7070312,0.142578 l -4.0002441,0 c -0.4626233,0 -0.7765795,0.303199 -0.875,0.5 -0.1253342,0.250667 -0.125,0.490234 -0.125,0.490234 l 0,0.0059 0,5.003918 -1,1 0.00781,0 C 5.99828,45.994215 14,46 14,46 14.462624,46 14.776539,45.696802 14.875,45.5 15.000334,45.249331 15,45.009766 15,45.009766 l 0,-0.0059 0,-6.003917 c 0,-0.462624 -0.303158,-0.776581 -0.5,-0.875 -0.250669,-0.125335 -0.490234,-0.125 -0.490234,-0.125 l -0.0059,0 z"
         style="opacity:0.9;fill:#000000;fill-opacity:1;fill-rule:evenodd;stroke:none;stroke-width:1px;stroke-linecap:butt;stroke-linejoin:miter;stroke-opacity:1" />
    </clipPath>
  </defs>
  <metadata
     id="metadata12669">
    <rdf:RDF>
      <cc:Work
         rdf:about="">
        <dc:format>image/svg+xml</dc:format>
        <dc:type
           rdf:resource="http://purl.org/dc/dcmitype/StillImage" />
        <dc:title />
      </cc:Work>
    </rdf:RDF>
  </metadata>
  <g
     transform="translate(0,-32)"
     id="layer1">
    <path
       id="path8270"
       d="m 14,45 0,-9 c 0,0 0.07407,-1 -1,-1 L 8.8888563,35.01145 C 8,35 8,34 7,34 L 2.0864284,33.963064 C 1,34 1.0123608,35.011452 1.0123608,35.011452 L 1,44 c 0,1 1,1 1,1 z"
       style="opacity:0.3;fill:none;fill-opacity:1;fill-rule:evenodd;stroke:#000000;stroke-width:2;stroke-linecap:butt;stroke-linejoin:round;stroke-miterlimit:4;stroke-dasharray:none;stroke-opacity:1" />
    <path
       style="fill:url(#linearGradient17800);fill-opacity:1;fill-rule:evenodd;stroke:none;stroke-width:1px;stroke-linecap:butt;stroke-linejoin:miter;stroke-opacity:1"
       d="m 14,45 0,-9 c 0,0 0.07407,-1 -1,-1 L 8.8888563,35.01145 C 8,35 8,34 7,34 L 2.0864284,33.963064 C 1,34 1.0123608,35.011452 1.0123608,35.011452 L 1,44 c 0,0 0,1 1,1 z"
       id="path17796" />
    <path
       transform="matrix(-1,0,0,1,16,-4.000001)"
       style="opacity:0.4;fill:none;fill-opacity:1;fill-rule:evenodd;stroke:url(#linearGradient8303);stroke-width:2;stroke-linecap:butt;stroke-linejoin:miter;stroke-miterlimit:4;stroke-dasharray:none;stroke-opacity:1"
       d="m 9,37.999949 c -0.2348843,0 -0.4387334,0.07426 -0.5625,0.158203 -0.1450871,0.0984 -0.2311402,0.207706 -0.3535156,0.345703 -0.088229,0.09949 -0.1701776,0.233288 -0.3769532,0.353516 C 7.5002558,38.977598 7.2701024,39.001549 7,38.999949 l -4.0000001,0 c -0.4626233,0 -0.7765795,0.303199 -0.875,0.5 -0.1253342,0.250667 -0.125,0.490234 -0.125,0.490234 l 0,0.0059 0,8.003939 3.372e-4,1 0.00781,0 C 5.9988593,48.994194 14,48.999979 14,48.999979 c 0.462624,0 0.776539,-0.303198 0.875,-0.5 C 15.000334,48.24931 15,48.009745 15,48.009745 l 0,-0.0059 0,-9.003896 c 0,-0.462624 -0.303158,-0.776581 -0.5,-0.875 -0.250669,-0.125335 -0.490234,-0.125 -0.490234,-0.125 l -0.0059,0 z"
       id="path8301"
       clip-path="url(#clipPath8307)" />
    <rect
       ry="0"
       y="35"
       x="2"
       height="1"
       width="5"
       id="rect17804"
       style="color:#000000;clip-rule:nonzero;display:inline;overflow:visible;visibility:visible;opacity:1;isolation:auto;mix-blend-mode:normal;color-interpolation:sRGB;color-interpolation-filters:linearRGB;solid-color:#000000;solid-opacity:1;fill:#f79b58;fill-opacity:1;fill-rule:evenodd;stroke:none;stroke-width:2;stroke-linecap:round;stroke-linejoin:round;stroke-miterlimit:4;stroke-dasharray:none;stroke-dashoffset:0;stroke-opacity:1;color-rendering:auto;image-rendering:auto;shape-rendering:auto;text-rendering:auto;enable-background:accumulate" />
    <path
       id="path17464"
       d="m 10.000002,36.499949 c -0.3339429,0 -0.6301041,0.09924 -0.8437501,0.24414 -0.213646,0.144903 -0.3429936,0.310151 -0.4472656,0.427735 -0.208544,0.235166 -0.2325437,0.330958 -0.7050782,0.328125 l -0.00391,0 -4.0002441,0 c -0.6666667,0 -1.1376371,0.408087 -1.3222656,0.777344 -0.1846285,0.369256 -0.1777344,0.722656 -0.1777344,0.722656 l 0,4.79302 -0.8535156,0.853515 c -0.2948199,0.296021 -0.118149,0.801626 0.296875,0.84961 0.01685,0.0022 0.033799,0.0035 0.050781,0.0039 l 0.00586,0 C 5.985248,45.4942 14,45.5 14,45.5 c 0.666667,0 1.137637,-0.408087 1.322266,-0.777344 C 15.506894,44.353399 15.5,44 15.5,44 l 0,-6.000051 c 0,-0.666667 -0.408087,-1.137637 -0.777344,-1.322266 C 14.353399,36.493054 14,36.499949 14,36.499949 Z"
       style="opacity:0.9;fill:url(#radialGradient17499);fill-opacity:1;fill-rule:evenodd;stroke:none;stroke-width:1px;stroke-linecap:butt;stroke-linejoin:miter;stroke-opacity:1" />
    <path
       id="path17530"
       d="m 8.4628925,36.697214 c -0.1496815,0.02762 -0.1978499,0.09079 -0.1621094,0.181641 0.019899,-0.02204 0.00229,-0.0042 0.033203,-0.03906 0.028114,-0.0317 0.08158,-0.08981 0.1289064,-0.142581 z m 1.5371095,0.302735 c -0.2348844,0 -0.4387335,0.07426 -0.5625001,0.158203 -0.1450871,0.0984 -0.2311402,0.207706 -0.3535156,0.345703 -0.088229,0.09949 -0.1701776,0.233288 -0.3769532,0.353516 -0.2067754,0.120227 -0.4369288,0.144178 -0.7070312,0.142578 l -4.0002441,0 c -0.4626233,0 -0.7765795,0.303199 -0.875,0.5 -0.1253342,0.250667 -0.125,0.490234 -0.125,0.490234 l 0,0.0059 0,2.417969 c 3.3550694,-0.985804 6.0613658,-1.50566 9.8264142,-1.507813 0.72571,8.67e-4 1.45136,0.02937 2.173828,0.06836 l 0,-1.974649 c 0,-0.462624 -0.303158,-0.776581 -0.5,-0.875 -0.250669,-0.125335 -0.490234,-0.125 -0.490234,-0.125 l -0.0059,0 z"
       style="opacity:0.8;fill:url(#radialGradient17543);fill-opacity:1;fill-rule:evenodd;stroke:none;stroke-width:1px;stroke-linecap:butt;stroke-linejoin:miter;stroke-opacity:1" />
    <path
       style="opacity:0.4;fill:none;fill-opacity:1;fill-rule:evenodd;stroke:#843200;stroke-width:1px;stroke-linecap:butt;stroke-linejoin:miter;stroke-opacity:1"
       d="m 10.000002,36.499949 c -0.3339429,0 -0.6301041,0.09924 -0.8437501,0.24414 -0.213646,0.144903 -0.3429936,0.310151 -0.4472656,0.427735 -0.208544,0.235166 -0.2325437,0.330958 -0.7050782,0.328125 l -0.00391,0 -4.0002441,0 c -0.6666667,0 -1.1376371,0.408087 -1.3222656,0.777344 -0.1846285,0.369256 -0.1777344,0.722656 -0.1777344,0.722656 l 0,4.79302 -0.8535156,0.853515 c -0.2948199,0.296021 -0.118149,0.801626 0.296875,0.84961 0.01685,0.0022 0.033799,0.0035 0.050781,0.0039 l 0.00586,0 C 5.985248,45.4942 14,45.5 14,45.5 c 0.666667,0 1.137637,-0.408087 1.322266,-0.777344 C 15.506894,44.353399 15.5,44 15.5,44 l 0,-6.000051 c 0,-0.666667 -0.408087,-1.137637 -0.777344,-1.322266 C 14.353399,36.493054 14,36.499949 14,36.499949 Z"
       id="path8238" />
    <path
       transform="translate(0,-1)"
       clip-path="url(#clipPath8312)"
       id="path8256"
       d="m 10.000002,37.999949 c -0.2348844,0 -0.4387335,0.07426 -0.5625001,0.158203 -0.1450871,0.0984 -0.2311402,0.207706 -0.3535156,0.345703 -0.088229,0.09949 -0.1701776,0.233288 -0.3769532,0.353516 -0.2067754,0.120227 -0.4369288,0.144178 -0.7070312,0.142578 l -4.0002441,0 c -0.4626233,0 -0.7765795,0.303199 -0.875,0.5 -0.1253342,0.250667 -0.125,0.490234 -0.125,0.490234 l 0,0.0059 0,5.003959 -1,1 0.00781,0 C 5.99828,45.994215 14,46 14,46 14.462624,46 14.776539,45.696802 14.875,45.5 15.000334,45.249331 15,45.009766 15,45.009766 l 0,-0.0059 0,-6.003917 c 0,-0.462624 -0.303158,-0.776581 -0.5,-0.875 -0.250669,-0.125335 -0.490234,-0.125 -0.490234,-0.125 l -0.0059,0 z"
       style="opacity:0.4;fill:none;fill-opacity:1;fill-rule:evenodd;stroke:url(#linearGradient8268);stroke-width:2;stroke-linecap:butt;stroke-linejoin:miter;stroke-miterlimit:4;stroke-dasharray:none;stroke-opacity:1" />
  </g>
</svg>
